<svg xmlns="http://www.w3.org/2000/svg" xml:space="preserve" width="900" height="900" viewBox="0 0 900 900.00001"><path d="M189.873 386.536c4.878-1.602 6.642-6.905 9.144-10.966a249 249 0 0 1 9.722-14.61c6.11-8.507 12.833-16.6 20.659-23.589 7.98-7.124 16.736-12.586 26.723-16.426 4.707-1.81 20.92-7.486 23.208-1.314 3.155 8.512-4.949 23.352-8.793 30.685-5.044 9.627-11.542 18.48-19.06 26.312-14.272 14.867-33.924 23.307-54.073 26.658-5.84.97-5.844 3.14-5.745 8.942.106 6.177 1.53 11.85 2.644 17.865 1.898 10.258 7.397 28.58 10.24 38.635.387-6.714 2.15-15.142 3.68-19.65 1.844-5.436 4.002-10.765 6.395-16.003 5.3-11.594 11.998-22.548 20.709-31.913 8.011-8.613 17.392-15.344 28.117-20.112 3.32-1.476 9.77-5.362 12.413-1.505 2.261 3.303.144 14.114-.022 18.073-.997 23.777-8.675 50.047-25.399 67.54-8.096 8.47-18.57 14.744-29.5 18.743-4.294 1.571-9.161.453-9.161.453 1.687 6.229 8.176 19.03 11.217 24.703 6.296 11.749 14.766 21.168 22.235 32.015 2.47 3.589 6.319 9.136 5.96 13.794-.528 6.834-7.817 2.435-10.97-.31-9.01-7.836-14.802-21.213-20.769-31.366-6.666-11.347-12.826-22.676-18.433-34.582-21.033-44.649-27.406-98.071-21.226-146.872 6.252-49.384 23.25-99.032 51.915-139.842 7.092-10.097 14.453-20.229 18.577-31.974 3.724-10.605 6.342-21.76 11.286-31.894 10.282-21.077 32.137-36.482 53.674-43.858 11.117-3.808 24.163-6.12 35.965-5.212 1.216.094 4.793.2 5.307 1.631.462 1.29-3.237 7.203-3.88 8.372-2.956 5.369-5.98 10.754-9.097 16.03-12.39 20.98-28.99 43.76-50.702 55.808-9.846 5.463-21.343 7.09-31.448 12.204-10.852 5.49-34.143 49.824-40.052 61.541-5.417 10.742-10.521 21.784-14.287 33.227-.859 2.611-5.173 12.398-2.22 14.33 1.951 1.28 11.81-9.362 13.777-10.954 9.955-8.05 20.692-14.728 32.41-19.868 11.806-5.182 24.063-8.162 36.855-9.507 5.289-.556 13.177-2.591 10.89 4.869-1.664 5.423-4.8 10.483-7.816 15.238-12.819 20.218-32.353 35.687-54.95 43.536-11.22 3.898-22.507 4.106-34.152 5.383-6.206.68-6.413 3.541-7.682 9.214-1.57 7.013-2.603 13.538-3.044 20.713-.713 11.616-3.284 24.238-1.242 35.813M597.47 648c-6.383-.556-13.647 3.688-17.43 8.65-5.073 6.658 6.46 9.782 11.3 12.249 14.689 7.484 29.724 14.278 44.442 21.7 1.892.955 6.43 4.368 8.47 2.76 1.804-1.42-.54-7.295-1.122-9.015-2.188-6.474-6.098-12.499-10.587-17.592-9.146-10.378-20.868-18.601-35.073-18.752m-226.647 5.252c6.657-3.615 49.806-28.06 44.365-32.814-2.242-1.96-111.41-44.036-116.58-46.655-6.924-3.508-.198-8.549 3.302-12.971 4.529-5.724 7.378-4.2 13.848-1.742 7.064 2.686 98.334 38.054 119.977 46.395 13.43 5.176 23.738 6.397 37.62 2.214 11.818-3.562 113.338-41.465 118.772-43.892 6.05-2.703 1.61-8.533 6.468-12.116 9.992-7.373 17.647 17.72 15.994 24.055-1.127 4.319-8.448 4.95-12.176 6.23-7.152 2.457-103.896 35.749-108.964 37.547-6.999 2.482-8.892 4.585-1.605 8.117 10.808 5.24 60.181 27.105 65.383 20.971 16.985-20.031 43.494-22.649 66.426-11.475 23.5 11.451 39.896 34.802 42.829 60.583.765 6.722-.058 13.358-1.27 19.979-1.361 7.413-5.465 6.747-12.021 4.778-11.612-3.488-23.203-7.458-34.366-12.205-26.3-11.186-52.012-24.077-77.842-36.328-12.105-5.74-60.355-30.874-73.2-35.16-12.458-4.159-23.304-.164-34.87 5.181-12.351 5.709-24.92 11.8-35.41 20.58-11.58 9.691-21.388 21.428-33.3 30.74-11.467 8.963-23.928 16.71-36.237 24.439-5.58 3.504-28.372 18.907-34.493 21.528-5.424 2.322-8.213-3.827-11.194-7.921-4.154-5.71-7.914-11.687-11.582-17.717-1.762-2.897-4.67-6.32-5.734-9.542-1.09-3.306.103-3.96 2.607-6.052 5.25-4.388 10.89-8.394 16.345-12.522 11.523-8.716 23.483-17.061 36.882-22.675 3.1-1.3 35.753-3.798 50.026-11.55M691.758 463.624c9.16-3.676 14.828-56.634 15.197-63.011.29-5.036-5.876-3.514-12.944-5.708-27.462-8.522-53.586-24.507-67.942-50.312-3.284-5.904-6.318-12.289-8.456-18.691-2.34-7.002-5.206-13.583 4.551-12.627 14.664 1.439 29.034 6.122 41.072 14.724 12.227 8.735 21.543 20.197 30.947 31.744 1.877 2.304 9.668 15.09 12.686 10.659 1.164-1.707-1.465-29.35-6.135-46.83-.57-2.131-1.528-7.148-2.607-7.696-2.547-1.293-7.695-.378-10.383-.385-15.073-.035-28.84-1.711-42.796-7.854-13.31-5.858-24.98-15.718-34.536-26.545-4.855-5.502-9.38-11.765-13.025-18.129-1.063-1.853-3.965-5.546-2.358-7.716 1.818-2.458 9.761-1.698 12.157-1.706 14.035-.044 27.463 3.38 40.513 8.14 7.246 2.642 13.986 6.056 20.551 10.143a100 100 0 0 1 8.533 5.98c1.656 1.29 9.289 7.26 10.714 8.598 4.189 3.933 4.951 4.257 3.864 1.157-2.634-7.52-10.477-26.675-13.715-33.956-5.89-13.24-27.876-52.054-32.035-58.647-3.7-5.871-7.276-15.938-14.648-17.41-14.048-2.806-26.67-5.481-39.403-12.666-27.658-15.605-46.241-44.838-63.032-70.844-.602-.932-2.016-2.72-2.362-3.903-1.06-3.627 9.396-3.694 11.937-3.672 7.622.064 14.254.863 21.651 2.443 13.566 2.896 26.572 7.47 38.233 15.274 12.555 8.401 22.4 19.072 29.1 32.625 7.17 14.51 12.791 29.548 20.916 43.632 15.813 27.416 34.668 53.411 45.962 83.198 10.096 26.632 17.567 54.306 20.848 82.685 3.705 32.054 3.183 64.324-2.686 96.062-2.4 12.981-6.097 25.82-10.806 38.144-5.35 14.006-13.706 26.044-20.91 39.107-3.385 6.137-6.128 12.812-10.314 18.467-2.16 2.92-11.841 12.907-14.27 5.769-1.638-4.822 5.419-14.286 7.641-18.118 4.212-7.264 8.735-14.336 13.19-21.454 3.794-6.055 8.005-12.548 9.96-19.503 2.235-7.964-6.426-7.351-12.25-9.372-13.997-4.855-26.223-13.78-35.813-24.98-8.565-10.002-14.286-22.34-18.272-34.8-2.211-6.911-3.873-13.999-4.64-21.221-.397-3.746-3.775-20.013.316-22.051 3.673-1.833 13.92 3.944 17.205 5.503 6.366 3.023 12.363 6.52 17.974 10.803 12.362 9.435 21.656 22.104 28.225 36.117 2.87 6.125 5.296 12.67 7.197 19.116.934 3.164 1.93 6.358 2.717 9.562.784 3.185.578 7.403 2.48 10.155" style="fill:#412210;fill-opacity:1;fill-rule:nonzero;stroke:none;stroke-width:1.14153"/><path d="M309.948 646.402c-21.615 13.375-62.535 44.56-64.916 54.987-.806 3.525 3.39 8.852 4.837 12.164 3.5 8.006 7.05 16.022 11.276 23.676 1.14 2.065 5.814 7.463 5.217 9.64-.796 2.905-6.216 1.643-8.443 1.652-64.934.292-130.607-51.463-131.706-57.566-.992-5.512 8.22-14.566 11.652-18.31 5.909-6.446 12.897-11.513 20.098-16.402 13.133-8.919 28.216-15.184 43.448-19.52 18.665-5.31 39.444-8.18 58.816-6.215 15.712 1.595 37.661 4.533 49.72 15.894M510.927 701.93c36.973 0 133.071 48.532 134.081 62.426 1.025 14.116-76.4 60.643-108.526 45.422-11.623-5.508-49.257-88.222-43.71-100.377 2.738-6 12.563-7.333 18.155-7.471M108.172 517.833c3.99-3.216 13.853-1.104 18.585-.708 8.276.693 16.805 1.56 24.994 2.958 13.33 2.275 26.473 5.548 39.11 10.427 26.214 10.121 48.846 26.883 67.028 48.223 4.711 5.529 8.969 11.427 13.218 17.315 2.352 3.26 4.732 6.518 6.972 9.858 1.505 2.246 6.258 7.896 6.305 10.54.093 5.324-10.904 3.001-15.185 2.997a6204 6204 0 0 1-24.858-.064c-15.764-.08-31.158-1.183-46.85-2.407-12.687-.99-25.043-4.67-33.685-14.478-11.22-12.737-18.32-29.153-26.762-43.744-8.419-14.554-18.572-27.681-28.873-40.917M610.663 619.343c-3.44-1.949-1.429-4.353.23-7.218 7.567-13.067 17.252-25.303 27.165-36.639 18.195-20.804 41.736-37.648 68.049-46.427 14.259-4.757 28.533-8.38 43.529-10.02 7.46-.816 14.872-1.956 22.378-2.272 2.165-.091 9.206-1.303 10.784.154 2.27 2.097-.577 4.157-2.263 6.284-9.268 11.698-17.45 23.8-25.208 36.556-7.174 11.793-12.957 24.408-20.848 35.784-9.359 13.49-21.841 19.993-38.093 21.366-4.463.377-78.628 6.451-85.723 2.432M646.915 638.074c-1.529-1.125-5.161-2.658-4.71-4.967.368-1.878 6.149-2.194 7.469-2.39 7.71-1.144 15.755-1.172 23.51-.529 13.845 1.15 27.749 3.224 40.762 8.105 28.358 10.637 61.415 32.387 67.785 43.714 6.35 11.29-8.487 23.218-16.272 29.61-10.851 8.908-55.115 33.58-83.366 31.123-7.526-.655-3.419-8.979-2.752-14.424 6.21-50.765-21.982-82.56-32.427-90.242M378.684 814.41c-25.314-1.434-51.762-6.445-73.5-20.274-9.971-6.343-20.487-17.03-15.629-29.943 4.416-11.736 19.923-18.852 30.061-24.385 43.626-23.806 97.2-37.216 99.974-34.684 2.423 2.208-8.311 16.311-14.757 35.525-4.865 14.494-7.318 29.395-10.073 44.343-1.343 7.29-2.096 14.603-3.323 21.9-1.436 8.545-4.806 7.519-12.754 7.519M644.718 561.928c-19.917-6.126-36.81-29.521-44.996-47.532-9.154-20.137-13.632-42.947-10.725-64.984.728-5.513 1.135-10.885 2.708-16.236 1.035-3.52 1.407-10.31 4.681-12.659 5.836-4.187 22.27 11.747 26.583 15.999 14.556 14.348 22.855 32.805 28.077 52.22 3.28 12.198 4.49 26.679 2.937 39.208-.742 5.994-.999 12.517-2.702 18.314-1.437 4.896-2.089 12.53-6.563 15.67M318.003 474.374c-1.736 23.02-6.439 44.743-18.97 64.553-5.691 8.998-12.407 17.35-21.066 23.654-2.768 2.015-6.95 5.707-10.668 4.102-3.317-1.43-5.596-8.844-6.642-12.056-13.029-39.956-4.402-93.59 29.581-121.538 3.162-2.6 10.136-9.332 14.598-7.31 4.066 1.841 7.079 11.462 8.41 15.213 3.868 10.88 5.398 21.264 4.757 33.382M790.603 401.56c-.429 22.24-3.326 44.785-14.068 64.714-10.125 18.784-26.439 36.638-47.368 43.41-6.912 2.236-7.516-.82-7.733-7.101a322 322 0 0 1-.12-18.533c.27-11.633 1.48-23.75 5.08-34.856 6.71-20.708 15.805-38.972 30.408-55.437 4.23-4.77 8.795-9.198 13.651-13.33 3.378-2.875 9.316-9.61 13.763-10.63 9.797-2.248 6.387 20.8 6.387 31.763M181.117 513.934c-1.648 4.525-8.148 2.244-11.85 1.085-9.023-2.825-17.189-7.223-24.581-13.113-15.935-12.698-27.226-32.867-31.51-52.628-2.435-11.234-3.582-22.208-3.453-33.719.05-4.477-.6-28.974 5.185-30.256 2.561-.568 9.9 6.447 11.93 7.977A172 172 0 0 1 140.82 405c7.488 7.007 13.95 14.872 19.756 23.311 14.162 20.589 25.726 71.377 20.54 85.622M785.313 302.295c-1.562 19.956-5.515 38.657-16.547 55.797-5.612 8.721-12.895 16.578-21.74 22.057-2.327 1.442-7.407 5.462-10.506 4.825-3.77-.774-4.587-8.127-5.095-11.14-6.445-38.104.097-86.637 30.138-114.06 2.56-2.337 8.547-9.036 12.396-6.904 3.048 1.687 5.555 10.623 6.494 13.786 3.53 11.878 4.324 23.333 4.86 35.639M170.149 373.786c.385 5.471 2.51 23.074-5.277 23.667-8.093.618-18.518-7.952-24.196-12.816-14.767-12.651-25.272-31.61-27.819-50.664-4.686-35.051 3.632-59.702 6.26-63.144 8.03-10.511 34.37 31.408 37.58 37.92 4.782 9.7 8.33 20.384 10.005 31.077.42 2.674 3.036 27.75 3.447 33.96M752.92 219.244c0 21.514-4.59 45.872-20.031 62.094-3.503 3.682-5.64 6.894-9.906 3.264-3.541-3.012-6.11-8.016-8.053-12.174-4.896-10.48-6.248-21.998-6.367-33.423-.235-22.62 4.164-48.115 19.441-65.846 4.758-5.521 7.436-5.99 12.05-.169 3.356 4.232 5.496 8.815 7.646 13.702 1.193 2.713 5.59 24.95 5.22 32.552M187.98 247.11c-.038 10.973-1.682 22.65-5.415 32.997-1.27 3.518-2.987 11.06-6.734 12.932-3.851 1.925-8.15-2.988-10.714-5.458-15.82-15.231-24.1-40.603-23.587-62.26.281-11.894 1.52-23.36 5.547-34.642 1.146-3.21 3.757-11.833 7.436-12.967 4.415-1.363 9.87 4.802 12.64 7.693 15.356 16.038 19.885 40.388 20.827 61.706M650.17 243.116c-21.451-1.044-42.682-6.116-60.787-18.132-8.948-5.938-16.916-13.4-22.902-22.355-1.946-2.91-6.406-8.181-5.496-11.917 1.068-4.38 7.522-4.135 11.162-4.745 22.405-3.754 44.689 2.659 62.66 16.396 8.82 6.74 16.48 15.286 22.603 24.528 1.94 2.928 8.591 11.437 6.341 14.767-1.736 2.572-10.953 1.355-13.582 1.458M238.588 251.825c-4.693-.211-9.979.908-9.842-4.85.1-4.116 4.884-9.85 7.04-13.255 5.862-9.252 12.753-17.796 21.11-24.915 16.443-14.008 36.54-21.132 58.191-18.615 2.513.292 12.19 1.604 13.758 3.76 2.357 3.24-1.743 7.417-3.484 9.933-6.364 9.2-13.467 17.4-22.183 24.453-8.917 7.213-18.757 12.687-29.447 16.796-11.396 4.379-23.12 5.248-35.143 6.693M458.55 650.912c19.102-.063 37.765 7.92 37.888 28.007.122 19.917-25.05 26.388-41.059 25.2-15.68-1.165-39.287-9.685-37.46-29.342.725-7.79 5.193-14.113 11.89-17.927 2.584-1.471 16.916-6.628 28.741-5.938M227.676 100.805c7.661 4.412 10.44 19.84 10.964 27.842.68 10.403-.324 20.4-2.56 30.483-4.07 18.357-12.524 39.112-27.884 51.076-4.899 3.816-6.405 3.508-8.046-2.573-1.647-6.103-2.504-12.435-2.956-18.727-.825-11.493-.811-23.648 1.111-35.037 3.168-18.77 11.298-43.605 29.37-53.064M653.168 128.13c.51-5.766 1.03-11.463 1.952-17.182.49-3.055.603-10.04 3.916-11.468 6.136-2.649 17.43 10.795 20.639 14.878 13.289 16.908 18.269 39.195 18.75 60.338.138 5.937-.612 11.757-1.269 17.64-.455 4.086.126 12.403-3.2 15.24-5.177 4.417-16.985-12.866-19.869-16.872-12.971-18.016-20.322-40.353-20.92-62.574M456.868 595.48c-12.352-1.15-28.341-4.863-27.711-20.576.608-15.171 16.332-19.375 29.121-19.125 12.114.236 26.977 5.797 27.342 20.145.39 15.291-17.046 18.975-28.752 19.556M371.002 624.23c-.96 2.731-8.6 10.073-11.71 10.474-4.467.577-39.51-18.398-42.429-20.001-3.524-1.938-4.155-1.52-2.202-4.922 2.428-4.228 9.34-6.609 13.71-5.427 5.282 1.425 43.2 17.023 42.63 19.876M577.688 604.247c3.79-.098 9.13 5.654 9.136 9.4.008 4.534-33.32 15.292-43.337 17.409-4.476.945-9.796-4.347-9.68-9.356.115-5.05 32.854-14.33 43.88-17.453M513.433 561.668c-.56-1.547 39.033-16.412 43.985-16.051 2.708.197 9.504 7.058 9.085 9.794-.588 3.845-41.232 18.457-44.777 17.317-3.463-1.113-7.35-7.719-8.294-11.06M343.746 539.41c5.356 1.106 43.073 17.432 43.961 20.126 1.008 3.056-6.426 8.872-8.875 9.501-3.988 1.024-43.993-16.465-45.639-19.88-1.896-3.935 7.443-9.186 10.553-9.747" style="fill:#412210;fill-opacity:1;fill-rule:nonzero;stroke:none;stroke-width:1.14153"/><path d="M603.215 352.693c0 82.827-67.144 149.97-149.97 149.97-82.827 0-149.97-67.143-149.97-149.97 0-82.826 67.143-149.971 149.97-149.971 82.826 0 149.97 67.145 149.97 149.97" style="fill:#c8c9ca;fill-opacity:1;fill-rule:evenodd;stroke:none;stroke-width:1.14153"/><path d="M581.44 352.693c0 70.8-57.394 128.194-128.194 128.194S325.05 423.493 325.05 352.693s57.395-128.194 128.195-128.194S581.44 281.894 581.44 352.693" style="fill:#121d3c;fill-opacity:1;fill-rule:evenodd;stroke:none;stroke-width:1.14153"/><path d="M502.005 241.879h1.13c.768.217 1.45.522 2.255.705 2.558 6.654 8.754 10.42 10.997 16.92-1.624.746-2.883-.718-4.653-.424-1.513.252-1.572 1.765-2.538 2.96-.492.612-1.454 1.057-2.114 1.693-4.093 3.932-8.03 10.004-10.575 15.368.468 1.118 1.14 1.785 1.551 2.96 1.393 3.988-.596 9.658.423 14.241-8.86 3.406-12.437 12.096-21.43 15.369-.117 8.673-12.747 4.831-16.075 10.292-4.165 1.121-6.971 3.241-7.331 8.179-.15 2.049.585 4.783 0 6.345-.431 1.149-2.614.972-2.68 2.255-.082 1.627 3.916 3.469 5.217 4.23 3.502 2.047 5.931 3.592 7.755 6.91 8.316 3.82 8.911 13.727 13.676 21.148 2.185 3.401 4.622 6.978 6.909 10.575 2.293 3.606 4.908 7.204 6.486 10.857 2.416 5.591 2.268 13.207 1.691 20.584-.283 3.636-.263 6.945-.986 10.151.716.553 2.399.139 2.82.988.491 5.151-1.038 9.615-2.538 13.535-1.412 3.693-3.406 8.038-6.626 9.73-5.03 2.639-12.013.345-18.613.845-4.885.37-7.34 2.857-10.997 5.076-3.581 2.174-7.296 3.29-10.574 5.499-1.651 1.113-3.89 3.906-5.64 4.511-2.664.92-5.766-.314-6.91-1.269-3.63-3.029-5.176-11.288-4.793-18.187.201-3.63 1.347-6.14 2.68-8.319 1.518-2.485 3.82-4.193 3.947-7.05.156-3.511-2.925-5.642-3.243-10.01-.21-2.884.86-7.365.14-10.011-.994-3.661-8.133-1.465-6.767-6.909.632-2.52 6.18-2.836 9.165-1.833 1.877.632 3.14 2.66 5.357 1.974.06-2.736-.126-4.974-1.269-6.909-.612-1.038-1.789-1.488-2.396-2.537-.938-1.623-1.905-5.08-2.115-7.474-.234-2.657.9-6.522-.282-8.036-2.087-2.673-11.907.009-14.945-1.552-.374-.192-.575-.644-.987-1.128-.346-.406-.777-.733-.988-.987-.657-.792-1.267-2.053-2.397-1.551-1.058.47-.233 2.794-1.409 3.383-2.357 1.184-6.175-2.105-7.896-3.242-2.906-1.92-7.905-4.266-5.64-9.306 1.401-3.114 4.42-4.34 6.627-7.19 2.639-.604 6.283-.203 6.909-2.82-1.802-1.296-5.89.287-7.614-1.552-.745-7.386 7.751-11.29 6.627-18.611-.622-4.044-5.609-3.85-10.152-4.37-4.231-.486-7.727-1.794-9.729-4.794-.324-.485-.495-.921-.845-1.41-.296-.411-.29-.991-.564-1.833v-1.55c1.157-5.99 8.061-9.18 12.548-11.986 1.429-.893 2.656-1.94 3.948-2.678 4.575-2.615 9.545-4.349 13.959-7.05 2.035-1.246 4.125-2.802 6.062-4.513.888-.783 1.606-1.827 2.538-2.679.985-.899 2.07-1.547 2.82-2.537 3.77-4.987 2.86-11.768 10.715-13.677 3.09 4.088 6.521 7.6 11.844 9.024 1.908.51 3.697.298 6.204.564 1.063.112 2.286.74 3.666.705 2.467-.064 4.886-1.445 5.216-3.384.745-4.368-4.789-6.009-4.229-10.152.351-2.602 4.027-3.243 7.472-3.243 2.374 0 4.871.788 6.769.705 3.702-.16 5.685-3.243 7.19-5.499 1.006-1.508 2.507-4.876 4.793-5.216.916-.137 2.365.654 3.948.14 5.385-1.745.925-13.16 6.486-14.943" style="fill:#c8c9ca;fill-opacity:1;stroke:none;stroke-width:1.74425;stroke-opacity:1"/></svg>